<?xml version="1.0" encoding="utf-8"?>
<!-- Generator: Adobe Illustrator 23.0.1, SVG Export Plug-In . SVG Version: 6.00 Build 0)  -->
<svg version="1.1" id="Layer_1" xmlns="http://www.w3.org/2000/svg" xmlns:xlink="http://www.w3.org/1999/xlink" x="0px" y="0px"
	 viewBox="0 0 305.78 51.84" style="enable-background:new 0 0 305.78 51.84;" xml:space="preserve">
<style type="text/css">
	.st0{fill:#5A5A5C;}
	.st1{fill:#FFFFFF;}
</style>
<path class="st0" d="M294.45,24.29c0,0.42,0,0.84,0,1.26c0,8.2-0.02,16.4,0.02,24.59c0.01,1-0.25,1.33-1.25,1.24
	c-0.99-0.09-2-0.08-3,0c-0.86,0.07-1.05-0.23-1.05-1.06c0.03-8.32,0.02-16.63,0.02-24.95c0-7.88,0.02-15.76-0.02-23.63
	c0-0.95,0.25-1.19,1.19-1.19c4.05,0.03,4.46,0.35,5.27,4.39c1.54,7.74,3.08,15.49,4.62,23.23c0.01,0.07,0.08,0.12,0.25,0.38
	c0-0.6,0-1,0-1.41c0-8.44,0.02-16.87-0.02-25.31c0-0.97,0.21-1.37,1.24-1.28c0.99,0.09,2,0.08,3,0c0.87-0.06,1.05,0.26,1.05,1.08
	c-0.04,5.32-0.02,10.64-0.02,15.95c0,10.88-0.01,21.75,0.02,32.63c0,0.96-0.27,1.28-1.19,1.15c-0.35-0.05-0.72-0.01-1.08-0.01
	c-2.09-0.01-3.08-0.75-3.54-2.81c-1.29-5.76-2.54-11.53-3.8-17.3c-0.51-2.32-1.02-4.65-1.53-6.97
	C294.58,24.28,294.51,24.28,294.45,24.29z"/>
<path class="st0" d="M82.08,25.96c0-8.04,0.01-16.08-0.02-24.12c0-0.92,0.19-1.22,1.16-1.2c2.8,0.07,5.6,0.01,8.4,0.03
	c3.57,0.02,6.28,2.75,6.29,6.31c0.02,5.32,0.04,10.64,0.03,15.96c0,1.48-0.07,2.99-1.4,4.03c-0.31,0.25-0.06,0.36,0.1,0.53
	c0.97,1.07,1.27,2.38,1.27,3.77c0.01,6.36-0.01,12.72,0.03,19.08c0.01,0.87-0.26,1.09-1.07,1.03c-1.04-0.07-2.08-0.09-3.12,0
	c-0.95,0.08-1.1-0.29-1.1-1.15c0.04-5.52,0.02-11.04,0.02-16.56c0-0.52,0.01-1.04-0.04-1.56c-0.17-1.66-1.09-2.51-2.74-2.59
	c-2.56-0.14-2.56-0.14-2.56,2.38c0,6.12-0.02,12.24,0.02,18.36c0.01,0.91-0.23,1.19-1.13,1.12c-1.03-0.08-2.08-0.08-3.12,0
	c-0.86,0.07-1.05-0.24-1.04-1.06C82.09,42.2,82.08,34.08,82.08,25.96z"/>
<path class="st0" d="M142.32,25.97c0,6.44,0,12.87,0,19.31c0,3.79-2.78,6.55-6.59,6.56c-1.32,0-2.64,0.01-3.96,0
	c-3.58-0.02-6.46-2.89-6.46-6.49c-0.01-12.95-0.01-25.91,0-38.86c0-3.65,2.81-6.47,6.44-6.48c1.36-0.01,2.72,0,4.08,0
	c3.7,0.01,6.49,2.81,6.49,6.54C142.32,13.02,142.32,19.5,142.32,25.97z"/>
<path class="st0" d="M255.75,17.69c-0.41,0.27-0.34,0.66-0.39,1c-1.35,10.29-2.7,20.58-4.04,30.88c-0.04,0.32-0.08,0.64-0.08,0.96
	c-0.01,0.66-0.32,0.87-0.98,0.85c-1.4-0.04-2.8-0.04-4.2,0c-0.67,0.02-0.75-0.18-0.65-0.83c2.44-15.94,4.85-31.88,7.26-47.82
	c0.32-2.14,0.33-2.14,2.47-2.14c2.53,0,3.17,0.55,3.55,3.02c2.23,14.64,4.47,29.27,6.7,43.91c0.12,0.79,0.2,1.58,0.32,2.37
	c0.22,1.48,0.23,1.48-1.31,1.48c-1.12,0-2.24-0.06-3.36,0.02c-0.75,0.05-0.95-0.26-1.04-0.92c-0.73-5.78-1.49-11.56-2.24-17.34
	C257.1,27.99,256.43,22.86,255.75,17.69z"/>
<path class="st0" d="M48.4,17.73c-0.56,1.31-0.61,2.7-0.79,4.06c-1.26,9.5-2.49,19-3.69,28.51c-0.1,0.77-0.29,1.12-1.14,1.08
	c-1.59-0.07-3.18-0.02-4.83-0.02c1.09-7.19,2.15-14.25,3.22-21.31c1.4-9.27,2.81-18.55,4.2-27.82c0.25-1.65,0.21-1.65,1.84-1.65
	c3.39,0,3.67,0.24,4.19,3.63c2.36,15.42,4.72,30.85,7.1,46.27c0.1,0.68-0.02,0.92-0.75,0.9c-1.36-0.05-2.72-0.07-4.08,0.01
	c-0.77,0.05-0.94-0.29-1.02-0.94c-0.74-5.78-1.49-11.56-2.24-17.34C49.74,27.98,49.07,22.85,48.4,17.73z"/>
<path class="st0" d="M174.48,35.64c0,2.68,0,5.19,0,7.7c0,0.44-0.02,0.88,0.03,1.32c0.18,1.52,1.4,2.65,2.79,2.61
	c1.35-0.04,2.58-1.15,2.66-2.63c0.26-4.58,0.11-9.06-2.37-13.21c-2.23-3.73-4.14-7.65-6.17-11.49c-1.46-2.76-2.38-5.65-2.22-8.83
	c0.08-1.52,0.01-3.04,0.02-4.56c0.02-3.61,2.96-6.54,6.56-6.54c0.96,0,1.92,0,2.88,0c3.69,0,6.61,2.9,6.63,6.59
	c0.03,4.4,0.03,4.4-4.05,6.19c-0.36,0.16-0.72,0.29-1.23,0.5c0-1.99,0.04-3.86-0.01-5.72c-0.06-2.17-1.9-3.52-3.73-2.76
	c-1.15,0.48-1.69,1.41-1.77,2.63c-0.27,4.26,0.25,8.3,2.49,12.11c2.32,3.95,4.34,8.09,6.45,12.16c1.28,2.48,1.99,5.11,1.87,7.95
	c-0.08,1.92-0.01,3.84-0.02,5.76c-0.01,3.65-2.8,6.41-6.47,6.42c-1.08,0-2.16,0.01-3.24,0c-3.47-0.02-6.34-2.87-6.37-6.32
	c-0.02-1.8,0.01-3.6-0.01-5.4c-0.02-1.48,0.56-2.52,1.99-3.07C172.25,36.65,173.29,36.15,174.48,35.64z"/>
<path class="st0" d="M14.49,22.83c-0.66,1.43-1.19,2.67-1.81,3.87c-0.48,0.92-1.32,1.36-2.36,1.38c-1.08,0.01-2.16,0-3.24,0.01
	c-1.54,0.01-1.89,0.36-1.89,1.93c-0.01,6.32,0,12.63,0,18.95c0,2.09-0.32,2.4-2.44,2.4c-2.74,0-2.74,0-2.74-2.8
	C0,33.29,0,18.02,0,2.75c0-1.86,0.37-2.23,2.24-2.23c4.36,0,8.71,0,13.07,0c1.36,0,1.37,0,0.8,1.31c-0.33,0.77-0.67,1.54-1.03,2.29
	c-0.54,1.13-1.45,1.65-2.69,1.64c-1.8-0.01-3.6-0.01-5.4,0c-1.37,0.01-1.8,0.42-1.8,1.79c-0.01,4.8,0.01,9.59-0.02,14.39
	c-0.01,0.79,0.29,0.91,0.98,0.91C8.86,22.81,11.57,22.83,14.49,22.83z"/>
<path class="st0" d="M214.56,25.56c0-7.96,0.02-15.92-0.02-23.88c0-0.89,0.21-1.24,1.12-1.12c0.55,0.07,1.12,0.01,1.68,0.01
	c1.81,0.02,2.47,0.68,2.47,2.46c0,6.44,0,12.88,0,19.32c0,9.28-0.01,18.56,0.02,27.84c0,0.93-0.21,1.29-1.17,1.19
	c-0.79-0.09-1.6-0.01-2.4-0.02c-1.39-0.01-1.69-0.31-1.69-1.68C214.56,41.64,214.56,33.6,214.56,25.56z"/>
<path class="st1" d="M87.33,15c0-2.84,0.03-5.68-0.02-8.52c-0.01-0.81,0.25-0.96,1.01-0.98c3.54-0.08,4.49,0.51,4.38,4.31
	c-0.12,3.8-0.02,7.6-0.03,11.4c-0.01,2.62-0.72,3.33-3.34,3.36c-2,0.02-2,0.02-2-2.01C87.33,20.04,87.33,17.52,87.33,15z"/>
<path class="st1" d="M137.04,26.06c0,5.95,0.01,11.9,0,17.86c-0.01,2.48-1.76,3.85-4.12,3.27c-1.54-0.38-2.35-1.48-2.35-3.3
	c-0.01-6.59,0-13.18,0-19.77c0-5.39-0.01-10.79,0-16.18c0.01-2.39,1.72-3.77,4.04-3.3c1.6,0.32,2.43,1.42,2.43,3.33
	C137.04,13.99,137.04,20.02,137.04,26.06z"/>
</svg>
