<?xml version="1.0" encoding="utf-8"?>
<!-- Generator: Adobe Illustrator 23.0.1, SVG Export Plug-In . SVG Version: 6.00 Build 0)  -->
<svg version="1.1" id="Layer_1" xmlns="http://www.w3.org/2000/svg" xmlns:xlink="http://www.w3.org/1999/xlink" x="0px" y="0px"
	 viewBox="0 0 309.19 309.13" style="enable-background:new 0 0 309.19 309.13;" xml:space="preserve">
<style type="text/css">
	.st0{fill:#1C6B37;}
	.st1{fill:#1F6534;}
	.st2{fill:#216133;}
	.st3{fill:#3F3F40;}
	.st4{fill:#215D31;}
	.st5{fill:#216032;}
	.st6{fill:#22502C;}
	.st7{fill:#215930;}
	.st8{fill:#22552E;}
	.st9{fill:#214A29;}
	.st10{fill:#1B331D;}
	.st11{fill:#1B331C;}
	.st12{fill:#1D3A21;}
	.st13{fill:#1E3C21;}
	.st14{fill:#22582F;}
	.st15{fill:#214F2B;}
	.st16{fill:#21542D;}
	.st17{fill:#204426;}
	.st18{fill:#204727;}
	.st19{fill:#2F3A30;}
	.st20{fill:#214B2A;}
	.st21{fill:#204225;}
	.st22{fill:#1F3E23;}
	.st23{fill:#283729;}
	.st24{fill:#213522;}
	.st25{fill:#243625;}
	.st26{fill:#353C36;}
	.st27{fill:#1F4024;}
	.st28{fill:#393D3A;}
	.st29{fill:#2D392E;}
	.st30{fill:#383D39;}
	.st31{fill:#333B34;}
	.st32{fill:#FEFEFE;}
	.st33{fill:#215C31;}
	.st34{fill:#889D82;}
	.st35{fill:#214C2A;}
	.st36{fill:#214828;}
	.st37{fill:#1C371F;}
</style>
<g>
	<path class="st0" d="M105.57,301.16c-6.7-2.12-13.17-4.81-19.44-7.97c-30.28-15.24-53.34-37.87-69.02-67.94
		c-7.7-14.76-12.72-30.42-15.26-46.88c-1.45-9.43-2.09-18.9-1.78-28.43c0.7-21.83,5.68-42.63,15.16-62.34
		c7.84-16.29,18.21-30.77,31.12-43.41c16.84-16.49,36.43-28.55,58.76-36.14c0.15-0.05,0.31-0.07,0.46-0.1
		c0.25,0.34,0.29,0.74,0.26,1.14c-0.2,2.6-0.09,5.2-0.09,7.79c-0.01,93.38-0.01,186.76,0,280.13c0,1-0.03,2,0.07,3
		C105.84,300.43,105.89,300.84,105.57,301.16z"/>
	<path class="st1" d="M105.57,301.16c-0.41-2.22-0.23-4.46-0.23-6.69c-0.01-94.01-0.01-188.02-0.01-282.02c0-1.5,0-3,0.24-4.49
		c4.08-1.47,8.25-2.65,12.48-3.6c0.22,0.41,0.16,0.86,0.16,1.29c-0.01,19.36,0,38.72,0.01,58.08c0,0.87-0.26,1.76,0.18,2.6
		c0.22,0.65-0.02,1.26-0.17,1.88c-0.97,3.97-1.44,8.03-1.45,12.1c-0.01,3.95,0.44,7.88,1.26,11.76c0.11,0.54,0.35,1.08,0.04,1.63
		c-0.36,0.29-0.32,0.71-0.33,1.1c-0.03,0.6-0.02,1.2-0.02,1.8c0,68.47,0,136.94-0.01,205.41c0,0.85,0.24,1.77-0.39,2.54
		C113.33,303.7,109.43,302.52,105.57,301.16z"/>
	<path class="st2" d="M117.33,304.56c0-69.95,0-139.91,0.03-209.86c0-0.35-0.63-1.36,0.63-1.09c0.47,0.21,0.54,0.67,0.65,1.08
		c1.72,6.76,4.58,13.02,8.14,18.99c0.31,0.51,0.69,1.01,0.37,1.67c-0.1,0.8-0.06,1.6-0.06,2.4c0,62.02,0,124.04-0.01,186.07
		c0,0.96,0.13,1.91,0.09,2.87C123.85,306.15,120.56,305.5,117.33,304.56z"/>
	<path class="st3" d="M281.09,65.73c3,4,5.58,8.26,8.05,12.59c8.75,15.4,14.65,31.83,17.73,49.26c1.43,8.11,2.16,16.29,2.29,24.54
		c0.3,18.26-2.53,36.01-8.51,53.26c-4.46,12.88-10.57,24.94-18.25,36.2c-0.13,0.19-0.3,0.36-0.45,0.54c-0.7-0.5-0.6-1.26-0.6-1.97
		c0-5.83-0.05-11.67,0.03-17.5c0-0.24,0.01-0.48-0.06-0.71c-0.14-0.84,0.39-1.45,0.76-2.09c3.06-5.31,5.69-10.82,7.97-16.51
		c4.73-11.78,7.87-23.98,9.38-36.6c0.52-4.36,0.72-8.74,1-13.13c0.23-3.73,0.01-7.43-0.14-11.12c-0.32-7.55-1.44-15.02-3.1-22.41
		c-2.59-11.5-6.73-22.41-12.27-32.8c-1.3-2.43-2.7-4.81-4.17-7.14c-0.31-0.49-0.72-0.99-0.49-1.66c0.28-3.27,0.05-6.54,0.12-9.81
		c0.01-0.68-0.05-1.36,0.05-2.04C280.49,66.26,280.41,65.71,281.09,65.73z"/>
	<path class="st4" d="M127.17,306.68c-0.28-0.23-0.53-0.47-0.48-0.9c0.03-0.28,0.01-0.56,0.01-0.84c0-62.8,0-125.61,0.02-188.41
		c0-0.52-0.41-1.23,0.42-1.56c0.29,0.09,0.46,0.32,0.6,0.56c1.39,2.38,3.23,4.43,4.83,6.67c0.36,0.51,0.63,1.02,0.39,1.66
		c-0.12,0.92-0.1,1.84-0.1,2.76c0,51.8,0,103.6-0.01,155.4c0,0.83,0.12,1.68-0.21,2.49c-0.52,0.68-1.2,0.23-1.81,0.26
		c-0.51-0.07-1-0.31-1.54-0.24c0.42-0.03,0.81,0.04,1.19,0.2c1.63,0.13,3.2,0.55,4.79,0.9c0.49,0.11,1.06,0.16,1.17,0.83
		c-0.48,6.05-0.14,12.11-0.25,18.17c-0.02,1.25,0.05,2.45,0.83,3.5C133.7,307.82,130.42,307.34,127.17,306.68z"/>
	<path class="st5" d="M118.25,66.48c-0.75-0.24-0.42-0.87-0.42-1.33c-0.02-13.68-0.01-27.36-0.01-41.04c0-6.08,0-12.16,0-18.24
		c0-0.51-0.09-1.05,0.23-1.51c3-0.83,6.04-1.45,9.12-1.92c0.22,0.86,0.15,1.75,0.15,2.62c0.01,12.91,0,25.83,0.01,38.74
		c0,1.28-0.25,2.55-0.01,3.82c0.19,0.7-0.18,1.23-0.56,1.76c-2.46,3.48-4.48,7.18-6.1,11.12c-0.73,1.78-1.48,3.54-2.03,5.38
		C118.56,66.12,118.48,66.36,118.25,66.48z"/>
	<path class="st4" d="M127.24,48.03c-0.46-0.55-0.6-1.29-0.47-1.88c0.23-1.08,0.15-2.15,0.15-3.22c0.01-12.84,0-25.67,0.04-38.51
		c0-0.64-0.59-1.4,0.2-1.97c2.7-0.55,5.42-1.01,8.17-1.22c0.53,0.61,0.38,1.36,0.39,2.06c0.01,10.73,0.01,21.47,0,32.2
		c0,0.88,0.03,1.76,0.02,2.63c0.12,0.67-0.23,1.14-0.68,1.56c-2.52,2.43-4.85,5.02-6.97,7.81
		C127.88,47.77,127.66,48.07,127.24,48.03z"/>
	<path class="st6" d="M154.05,0.05c4.17-0.1,8.33-0.03,12.48,0.44c0.64,0.95,0.61,2.04,0.61,3.11c0.01,5.42,0.01,10.83,0,16.25
		c0,0.6-0.01,1.2,0.15,1.78c0.12,0.63-0.38,0.74-0.78,0.85c-4.01,1.07-7.89,2.55-11.76,4.02c-0.27,0.1-0.54,0.13-0.82,0.02
		c-0.39-0.26-0.42-0.66-0.4-1.06c0.29-7.26,0.05-14.53,0.13-21.79c0.01-1.07-0.12-2.16,0.13-3.22
		C153.83,0.29,153.94,0.16,154.05,0.05z"/>
	<path class="st7" d="M135.61,38.74c-0.32-0.54-0.28-1.15-0.28-1.74c0-11.92,0-23.85,0-35.77c1.14-0.44,2.35-0.32,3.52-0.45
		c2.09-0.23,4.2-0.33,6.31-0.48c-0.85,0.83-0.82,1.88-0.82,2.96c0.02,8.3,0,16.6,0.02,24.9c0,1.12-0.21,2.23-0.06,3.34
		c0.12,0.54-0.12,0.91-0.54,1.23c-2.58,1.95-5.32,3.69-7.71,5.89C135.94,38.72,135.77,38.75,135.61,38.74z"/>
	<path class="st8" d="M144.29,31.96c-0.37-0.23-0.56-0.59-0.53-1.01c0.5-7.7,0.08-15.4,0.21-23.1c0.03-1.96,0.08-3.92-0.03-5.87
		c-0.05-1.02,0.24-1.54,1.22-1.69c2.96-0.25,5.92-0.36,8.89-0.24c0,7.73,0,15.47,0,23.2c0,0.75,0.07,1.5-0.19,2.25
		c-0.12,0.36-0.17,0.83,0.43,0.91c0.07,0.5-0.35,0.58-0.65,0.72c-2.69,1.22-5.22,2.73-7.74,4.25
		C145.41,31.66,144.98,32.19,144.29,31.96z"/>
	<path class="st9" d="M167.31,21.87c-0.37-0.07-0.62-0.13-0.62-0.66c0.05-4.8,0.06-9.6,0.07-14.39c0.01-2.11,0.07-4.23-0.24-6.33
		c5.03,0.27,10.02,0.88,14.96,1.88c-0.42,0.6-0.58,1.28-0.61,2.01c-0.14,4.53-0.02,9.06-0.06,13.59c-0.01,0.63,0.07,1.28-0.19,1.88
		c-0.29,0.52-0.8,0.62-1.33,0.65c-3.51,0.14-6.96,0.74-10.39,1.44C168.39,22.05,167.83,22.27,167.31,21.87z"/>
	<path class="st10" d="M218.68,13.9c3.98,1.61,7.74,3.66,11.48,5.75c2.29,1.27,4.58,2.55,6.72,4.06c0.32,0.44,0.36,0.95,0.36,1.48
		c0.01,3.45,0.01,6.9,0,10.35c0,0.44-0.01,0.87-0.22,1.27c-0.69,0.67-1.28,0.07-1.82-0.23c-2.09-1.16-4.18-2.31-6.32-3.38
		c-3.1-1.55-6.27-2.95-9.46-4.31c-0.55-0.24-1.11-0.46-1.43-1.03c-0.2-0.41-0.23-0.84-0.23-1.28c-0.02-3.77-0.04-7.54,0.02-11.31
		C217.78,14.71,217.52,13.78,218.68,13.9z"/>
	<path class="st11" d="M234.69,286.77c-4.47,2.8-9.08,5.35-13.92,7.47c-0.86-0.08-0.82-0.76-0.84-1.33
		c-0.06-1.43-0.01-2.87-0.03-4.31c-0.04-3.67,0.1-7.34-0.09-11c-0.01-0.57,0.36-0.83,0.81-1.05c4.11-2,8.19-4.04,12.12-6.38
		c0.41-0.24,0.84-0.45,1.35-0.38c0.77,0.24,0.84,0.86,0.82,1.53c-0.15,4.81-0.15,9.62,0.01,14.43
		C234.94,286.12,234.91,286.47,234.69,286.77z"/>
	<path class="st12" d="M220.05,277.2c0.21,0.65,0.25,1.32,0.25,2.01c-0.01,4.56-0.01,9.12,0,13.68c0,0.5-0.14,1.07,0.48,1.36
		c-4.49,2.27-9.11,4.2-13.89,5.77c-0.86-0.25-0.64-1-0.64-1.56c-0.03-3.9-0.04-7.8,0-11.7c0.01-1.31-0.22-2.61-0.14-3.93
		c0.15-0.64,0.68-0.85,1.21-1.03c3.95-1.31,7.81-2.84,11.62-4.51C219.28,277.14,219.65,276.89,220.05,277.2z"/>
	<path class="st13" d="M218.68,13.9c-0.55,0.06-0.55,0.47-0.55,0.88c0,4.13,0,8.26,0.01,12.39c0,0.3,0.15,0.6,0.23,0.91
		c-0.49,0.35-0.92,0.03-1.35-0.13c-4.4-1.65-8.84-3.18-13.37-4.41c-0.57-0.16-1.18-0.31-1.35-1.02c0.15-4.34,0.04-8.68,0.08-13.02
		c0.01-0.62-0.12-1.29,0.38-1.82c4.54,1.31,8.9,3.11,13.24,4.95C216.92,13.01,217.79,13.47,218.68,13.9z"/>
	<path class="st14" d="M137.01,308.12c-1.03-0.22-1.18-1.04-1.18-1.87c-0.02-5.78-0.05-11.56,0.04-17.33
		c0.01-0.84-0.08-1.82,0.48-2.62c1.16-0.34,2.27,0.14,3.39,0.26c1.85,0.2,3.67,0.61,5.52,0.87c0.52,0.07,1.02,0.18,1.32,0.69
		c0.2,0.46,0.19,0.94,0.16,1.42c-0.36,6.03-0.27,12.06-0.05,18.09c0.02,0.45,0.04,0.88-0.29,1.24
		C143.23,308.84,140.12,308.53,137.01,308.12z"/>
	<path class="st15" d="M166.29,308.64c-1.47,0.33-2.97,0.23-4.45,0.27c-1.14,0.24-2.31-0.05-3.46,0.16c-0.8,0-1.6,0.01-2.41,0.01
		c-0.41-0.41-0.38-0.95-0.38-1.46c-0.01-5.41-0.02-10.82,0-16.23c0-0.84,0.11-1.67,0.65-2.37c0.16-0.18,0.38-0.25,0.62-0.26
		c0.95,0.15,1.9,0.12,2.85,0.06c1.69-0.02,3.39-0.02,5.08,0c0.55,0,1.11-0.04,1.58,0.35c0.37,0.53,0.31,1.14,0.31,1.74
		c0.01,5.3,0.01,10.61,0,15.91C166.68,307.45,166.76,308.11,166.29,308.64z"/>
	<path class="st16" d="M156.45,289c-0.44,1.1-0.5,2.23-0.49,3.4c0.03,5.56,0.01,11.12,0.01,16.68c-3.2,0.05-6.41,0.14-9.6-0.21
		c-0.42-6.95-0.34-13.9,0-20.85c0.26-0.32,0.62-0.37,0.97-0.32c2.67,0.35,5.37,0.54,8.04,0.84
		C155.78,288.59,156.19,288.64,156.45,289z"/>
	<path class="st17" d="M180.45,19.92c0-4.84,0.02-9.68-0.02-14.51c-0.01-0.71,0.23-1.39,0.09-2.12c-0.12-0.6,0.35-0.92,0.98-0.92
		c3.81,0.54,7.57,1.34,11.27,2.41c-0.35,4.27-0.06,8.55-0.17,12.82c-0.02,0.95,0.2,1.92-0.29,2.82c-0.43,0.37-0.96,0.37-1.47,0.31
		c-3-0.35-6.02-0.49-9.04-0.44C181.32,20.3,180.82,20.31,180.45,19.92z"/>
	<path class="st18" d="M186.47,305.8c-3.13,0.78-6.29,1.34-9.5,1.67c-0.7,0.25-1.07-0.03-1.17-0.74c-0.05-0.36-0.05-0.72-0.05-1.08
		c-0.08-5.24,0.15-10.48-0.13-15.71c-0.02-0.41,0.05-0.8,0.3-1.14c0.2-0.25,0.48-0.34,0.79-0.39c0.49-0.03,0.98-0.02,1.45-0.19
		c2.58-0.49,5.2-0.67,7.78-1.11c0.38-0.06,0.8-0.15,1.07,0.29c-0.34,3.77-0.09,7.55-0.16,11.32c-0.03,1.83,0,3.66-0.01,5.49
		C186.83,304.77,186.84,305.33,186.47,305.8z"/>
	<path class="st19" d="M265.16,262.54c-3.21,3.45-6.65,6.66-10.31,9.64c-0.75-0.41-0.61-1.15-0.62-1.81
		c-0.02-4.18-0.01-8.37-0.01-12.55c0-0.76,0.01-1.52-0.17-2.26c-0.2-0.8,0.33-1.27,0.84-1.71c3.16-2.75,5.99-5.82,8.93-8.79
		c0.35-0.35,0.64-0.92,1.25-0.36c0.4,0.77,0.46,1.61,0.46,2.45c0.01,4.27,0.01,8.54,0,12.8
		C265.54,260.83,265.45,261.7,265.16,262.54z"/>
	<path class="st20" d="M176.13,288.75c-0.49,0.89,0.02,1.79,0.02,2.68c-0.04,4.94-0.02,9.88-0.02,14.83c0,0.6-0.11,1.26,0.83,1.21
		c-3.53,0.65-7.09,1.04-10.67,1.17c0-6.47,0-12.93,0-19.4c0.2-0.29,0.52-0.35,0.83-0.38c2.6-0.25,5.21-0.23,7.81-0.49
		C175.36,288.33,175.81,288.37,176.13,288.75z"/>
	<path class="st21" d="M186.47,305.8c0-5.74-0.01-11.48-0.02-17.22c0-0.49,0-0.96,0.49-1.25c0.25-0.43,0.69-0.52,1.12-0.59
		c2.35-0.41,4.68-0.95,7.01-1.45c0.46-0.1,0.94-0.24,1.38,0.1c0.52,0.6,0.46,1.34,0.46,2.06c0.01,3.92,0,7.84,0.01,11.75
		c0,1.32,0.09,2.63,0.35,3.93C193.72,304.27,190.12,305.16,186.47,305.8z"/>
	<path class="st22" d="M197.26,303.13c-0.41-0.04-0.69-0.21-0.69-0.66c-0.01-5.1-0.03-10.2-0.02-15.3c0-0.61-0.06-1.19-0.25-1.76
		c0.25-0.49,0.75-0.55,1.2-0.67c2.53-0.67,5.05-1.38,7.54-2.18c0.43-0.14,0.89-0.43,1.34-0.02c0.49,5.5,0.13,11,0.24,16.5
		c0.01,0.35-0.09,0.73,0.27,0.99C203.76,301.32,200.52,302.26,197.26,303.13z"/>
	<path class="st23" d="M254.07,255.1c0.58,0.4,0.54,1.01,0.54,1.61c0,4.65,0,9.31,0,13.96c0,0.52-0.04,1.04,0.25,1.51
		c-3.18,2.86-6.55,5.5-10.08,7.91c-0.79-0.42-0.68-1.16-0.67-1.88c0.11-4.45,0.03-8.9,0.04-13.35c0-0.4-0.06-0.79-0.15-1.18
		c-0.19-0.66,0.19-1.05,0.65-1.4c2.83-2.13,5.61-4.31,8.26-6.67C253.23,255.34,253.58,255.04,254.07,255.1z"/>
	<path class="st24" d="M243.97,263.24c0.49,0.2,0.57,0.6,0.57,1.07c-0.1,4.81,0.19,9.62-0.15,14.42c-0.03,0.49,0.2,0.92,0.39,1.36
		c-3.22,2.45-6.58,4.67-10.08,6.68c-0.51-4.91-0.12-9.84-0.23-14.75c-0.01-0.31,0.12-0.62,0.15-0.93c0.08-0.65-0.11-1.1-0.87-1.08
		c-0.07-0.6,0.47-0.68,0.8-0.89c2.79-1.77,5.54-3.59,8.24-5.49C243.13,263.39,243.46,263.03,243.97,263.24z"/>
	<path class="st25" d="M236.6,36.97c0.4-0.35,0.24-0.82,0.24-1.23c0.02-4.01,0.02-8.02,0.03-12.03c4.58,2.81,9.04,5.81,13.11,9.34
		c0.08,0.07,0.2,0.08,0.31,0.13c0.17,0.24,0.18,0.52,0.18,0.8c-0.08,3.24-0.01,6.48-0.04,9.72c-0.01,0.64,0.01,1.29-0.44,1.82
		c-0.42,0.39-0.83,0.17-1.19-0.09c-3.82-2.77-7.73-5.39-11.77-7.82C236.8,37.47,236.52,37.33,236.6,36.97z"/>
	<path class="st26" d="M265.16,262.54c-0.53-0.69,0.03-1.38,0.02-2.08c-0.03-4.58-0.01-9.16-0.02-13.75c0-0.75-0.16-1.48-0.48-2.16
		c0.07-1.13,1.08-1.63,1.69-2.35c2.07-2.43,4.02-4.95,6.02-7.44c0.35-0.44,0.64-1.08,1.42-0.8c0.47,0.54,0.37,1.2,0.38,1.82
		c0.01,3.86,0.03,7.72-0.01,11.58c-0.01,1.28,0.21,2.54,0.15,3.81c-0.02,0.48-0.08,0.95-0.24,1.4c-2.36,3.02-4.93,5.86-7.57,8.64
		C266.09,261.69,265.62,262.11,265.16,262.54z"/>
	<path class="st27" d="M192.21,20.42c0-4.8-0.01-9.6,0.01-14.39c0-0.47-0.25-1.1,0.54-1.25c3.2,0.9,6.46,1.58,9.6,2.7
		c0.14,0.05,0.27,0.14,0.41,0.21c0,3.93,0,7.86,0,11.79c0,1.11,0.07,2.22-0.24,3.3c-0.36,0.34-0.75,0.17-1.12,0.06
		c-2.7-0.81-5.44-1.4-8.23-1.84C192.8,20.92,192.39,20.85,192.21,20.42z"/>
	<path class="st28" d="M274.09,252.59c-0.52-5.79-0.18-11.59-0.29-17.39c-0.01-0.42,0.27-1.01-0.43-1.2
		c-0.22-0.56,0.22-0.89,0.48-1.25c2.36-3.25,4.57-6.61,6.63-10.06c0.23-0.39,0.39-0.9,0.97-0.95c0.3,0.19,0.38,0.45,0.38,0.81
		c-0.04,6.06-0.07,12.12-0.08,18.18c0,0.47,0.14,0.94,0.22,1.4C279.56,245.79,276.94,249.28,274.09,252.59z"/>
	<path class="st29" d="M249.57,45.6c0.49-0.4,0.48-0.96,0.48-1.52c0-3.06,0.01-6.11-0.01-9.17c0-0.6,0.06-1.18,0.25-1.75
		c4.06,3.1,7.9,6.45,11.51,10.06c0.25,0.69,0.14,1.42,0.14,2.12c0.01,2.74,0.01,5.48,0,8.21c0,0.63,0.06,1.28-0.4,1.81
		c-0.57,0.44-0.98,0.06-1.35-0.31c-3.15-3.12-6.6-5.89-10.07-8.63C249.87,46.23,249.48,46.06,249.57,45.6z"/>
	<path class="st30" d="M281.09,65.73c-0.5,0.34-0.31,0.87-0.31,1.32c-0.01,3.51,0,7.02-0.02,10.53c0,0.43,0.24,1.01-0.49,1.15
		c-0.46,0.05-0.61-0.33-0.8-0.61c-2.7-4.25-5.78-8.23-8.94-12.14c-0.37-0.46-0.86-0.88-0.59-1.59c0.27-3.43,0.05-6.87,0.13-10.3
		c0.02-0.62-0.13-1.29,0.39-1.81c3.67,4.03,7.11,8.25,10.11,12.81C280.73,65.31,280.92,65.52,281.09,65.73z"/>
	<path class="st31" d="M270.47,52.28c-0.01,3.72-0.01,7.44-0.02,11.15c0,0.5,0.15,1.07-0.47,1.37c-0.99-0.13-1.34-1.04-1.89-1.64
		c-2.19-2.37-4.29-4.81-6.63-7.04c-0.19-0.18-0.48-0.33-0.36-0.68c0.61-0.3,0.47-0.86,0.47-1.37c0.01-3.15,0-6.31,0-9.46
		c0-0.48-0.04-0.96,0.23-1.39C264.9,46.04,267.76,49.08,270.47,52.28z"/>
	<path class="st16" d="M158.38,309.07c1.14-0.39,2.31-0.12,3.46-0.16C160.69,309.18,159.53,309.09,158.38,309.07z"/>
	<path class="st32" d="M261.1,55.44c3.09,2.99,6,6.17,8.88,9.36c3.68,4.46,7.12,9.09,10.29,13.93c6.79,10.7,11.99,22.12,15.46,34.33
		c2.55,8.97,4.17,18.11,4.77,27.42c1.66,25.71-3.38,50.07-14.71,73.16c-1.35,2.75-2.9,5.41-4.35,8.11
		c-2.54,4.19-5.24,8.27-8.08,12.26c-2.82,3.58-5.63,7.17-8.68,10.56c-3.37,3.68-6.97,7.13-10.61,10.54
		c-3.37,2.71-6.74,5.43-10.11,8.14c-3.07,1.99-6,4.18-9.15,6.04c-0.37,0.22-0.72,0.48-1.08,0.73c-4.48,2.57-9.05,4.94-13.69,7.19
		c-4.51,1.9-9.06,3.71-13.68,5.32c-3.36,0.96-6.72,1.92-10.08,2.88c-3.12,0.64-6.24,1.29-9.36,1.93c-2.96,0.4-5.92,0.8-8.89,1.21
		c-0.41,0.15-0.86-0.04-1.27,0.16c-0.22,0.02-0.43,0.03-0.65,0.05c-3.28,0.17-6.56,0.33-9.84,0.5c-2.22-0.02-4.43-0.04-6.65-0.06
		c-0.89-0.26-1.81,0.04-2.7-0.17c-0.16,0-0.32,0-0.48-0.01c-3.36-0.32-6.72-0.65-10.08-0.97c-2.64-0.44-5.27-0.97-7.94-1.26
		c-0.71-0.08-1.39-0.31-2.09-0.46c-2-0.49-4-0.98-6-1.47c-0.09-0.21-0.04-0.3,0.2-0.22c0.64,0.01,1.27,0.01,1.91,0.02
		c0.57-0.27,1.18-0.12,1.77-0.13c2.9-0.08,5.8,0.14,8.7-0.11c3.78-0.22,7.52-0.76,11.25-1.41c3.17-0.61,6.31-1.36,9.38-2.39
		c3.51-1.07,6.96-2.29,10.3-3.81c3.48-1.49,6.86-3.2,10.04-5.25c2.89-1.92,5.95-3.59,8.62-5.84c0.24-0.21,0.5-0.4,0.73-0.63
		c3.06-2.69,6.23-5.26,9.01-8.26c0.35-0.38,0.74-0.73,1.03-1.17c3.4-3.84,6.39-7.97,8.82-12.5c0.3-0.57,0.61-1.12,0.78-1.74
		c3.01-5.83,4.77-12,5.42-18.53c0.99-9.9-1.26-19.13-5.56-27.96c-2.23-4.59-5.13-8.75-8.33-12.7c-0.35-0.43-0.7-0.87-1.07-1.29
		c-2.73-3.29-5.94-6.1-9.11-8.94c-0.3-0.27-0.56-0.56-0.82-0.87c-2.55-2.4-5.38-4.44-8.23-6.45c-0.45-0.32-0.9-0.66-1.29-1.05
		c-1.48-1.33-3.17-2.39-4.79-3.53c-1.88-1.33-3.74-2.69-5.7-3.9c-2.8-2-5.67-3.88-8.6-5.68c-0.37-0.23-0.73-0.49-1.06-0.78
		c-2.8-2.03-5.61-4.07-8.55-5.9c-0.58-0.36-1.12-0.76-1.6-1.25c-2.46-1.92-4.99-3.74-7.37-5.75c-1.8-1.52-3.63-3-5.35-4.62
		c-1.89-1.71-3.66-3.54-5.33-5.46c-0.93-1.07-2.05-2-2.58-3.38c-1.42-1.93-2.87-3.85-4.26-5.81c-0.58-0.82-1.06-1.72-1.58-2.58
		c-3.12-5.27-5.9-10.7-7.74-16.56c-0.5-1.59-0.93-3.2-1.39-4.8c-2.11-9.06-2.1-18.1,0.26-27.12c1.16-4.72,3.27-9.03,5.65-13.22
		c1.02-1.8,2.22-3.49,3.34-5.23c2.58-3.28,5.34-6.41,8.37-9.28c2.32-2.42,5.17-4.15,7.83-6.14c0.28-0.21,0.56-0.43,0.84-0.65
		c3.24-2.02,6.59-3.84,10-5.55c4.11-1.72,8.27-3.27,12.6-4.34c0.15-0.04,0.28-0.12,0.42-0.19c3.27-0.61,6.52-1.29,9.84-1.63
		c1.1-0.11,2.22,0.03,3.3-0.32c3.93-0.09,7.85,0.13,11.76,0.5c2.24,0.56,4.56,0.74,6.79,1.4c1.17,0.35,2.36,0.63,3.53,0.95
		c3.27,1.05,6.56,2.07,9.82,3.15c2.02,0.67,4.01,1.43,6.02,2.15c3.54,1.58,7.15,3.04,10.6,4.82c2.56,1.33,5.09,2.71,7.64,4.07
		c4.44,2.7,8.76,5.58,12.97,8.64C253.55,48.72,257.42,51.97,261.1,55.44z"/>
	<path class="st33" d="M132.97,123.35c2.53,3.03,5.3,5.84,8.06,8.67c0.26,0.9,0.22,1.82,0.22,2.73c0,48.69,0,97.37,0,146.06
		c0,0.44,0,0.88,0,1.32c0.01,1.68,0.01,1.68,1.54,2.31c0.12,0.05,0.19,0.15,0.27,0.23c-3.54,0.33-7.08,0.37-10.61-0.03
		c0-53.2,0-106.39,0.01-159.59C132.46,124.45,132.18,123.73,132.97,123.35z"/>
	<path class="st34" d="M130.54,284.62c-0.07,0.07-0.13,0.14-0.2,0.22c-0.41-0.09-0.81-0.18-1.22-0.27
		C129.61,284.39,130.09,284.28,130.54,284.62z"/>
	<path class="st16" d="M156.94,289.01c0.91-0.02,1.82-0.08,2.7,0.17C158.74,289.13,157.82,289.42,156.94,289.01z"/>
	<path class="st20" d="M176.78,288.7c0.4-0.24,0.83-0.19,1.27-0.16C177.66,288.86,177.21,288.69,176.78,288.7z"/>
	<path class="st8" d="M143.07,284.67c-0.28-0.01-0.56-0.05-0.84-0.02c-1.09,0.14-1.44-0.43-1.38-1.41c0.01-0.24,0-0.48,0-0.72
		c0-49.66,0-99.32,0.01-148.98c0-0.51-0.16-1.04,0.17-1.52c3.91,3.33,7.82,6.68,11.99,9.69c0.25,0.18,0.47,0.41,0.7,0.62
		c0.01,46.05,0,92.11,0.01,138.16c0,0.95-0.12,1.93,0.59,2.73C150.62,284.07,146.87,284.56,143.07,284.67z"/>
	<path class="st6" d="M154.32,283.22c-0.67,0.05-1.1-0.14-1-0.93c0.03-0.24,0-0.48,0-0.72c0-45.92,0-91.84,0.02-137.77
		c0-0.49-0.34-1.14,0.37-1.48c3.12,2.16,6.24,4.32,9.35,6.48c0.29,0.2,0.56,0.43,0.84,0.65c0.15,0.34,0.18,0.69,0.18,1.06
		c-0.09,42.72-0.02,85.44-0.05,128.15c0,0.75,0.11,1.53-0.37,2.21C160.62,281.92,157.51,282.72,154.32,283.22z"/>
	<path class="st35" d="M163.68,280.88c-0.01-0.52-0.03-1.04-0.03-1.56c0-42.58,0-85.16-0.01-127.74c0-0.73,0.04-1.43,0.27-2.12
		c2.76,1.83,5.52,3.66,8.27,5.5c0.46,0.31,0.89,0.65,1.33,0.98c0.47,0.6,0.62,1.29,0.61,2.03c0,0.44,0,0.88,0,1.32
		c0,37.87,0,75.75,0,113.62c0,1.36,0,2.72-0.12,4.07C170.71,278.65,167.2,279.8,163.68,280.88z"/>
	<path class="st36" d="M174.01,276.98c-0.41-0.35-0.47-0.9-0.4-1.31c0.26-1.55,0.11-3.11,0.11-4.66
		c0.01-36.61,0.01-73.22,0.01-109.83c0-1.75,0.12-3.51-0.21-5.24c3.63,2.32,7.16,4.79,10.58,7.4c0.22,0.95,0.11,1.91,0.11,2.87
		c0,32.77,0,65.55,0,98.32c0,2.4,0.04,4.79-0.07,7.19C180.92,273.78,177.55,275.55,174.01,276.98z"/>
	<path class="st17" d="M184.14,271.72c-0.27-0.12-0.41-0.26-0.41-0.62c0.04-35.29,0.06-70.59,0.08-105.88
		c0-0.64-0.07-1.28,0.28-1.87c1.91,1.76,4.23,2.98,6.19,4.69c1.1,0.96,2.33,1.76,3.3,2.86c0.16,2.15,0.24,4.3,0.24,6.46
		c-0.01,28.45-0.01,56.89-0.01,85.34c0,0.88,0.06,1.76-0.37,2.58c-2.49,2.23-5.33,3.96-8.15,5.71
		C184.9,271.23,184.52,271.47,184.14,271.72z"/>
	<path class="st27" d="M193.44,265.27c-0.01-0.6-0.02-1.2-0.02-1.8c0-29.5,0-59.01,0-88.51c0-0.83,0.07-1.66-0.19-2.49
		c-0.17-0.54-0.03-1.11,0.37-1.57c2.61,2.46,5.4,4.73,7.83,7.39c0.72,0.79,1.39,1.62,2.08,2.44c0.04,1.4,0.16,2.79,0.16,4.18
		c0,22.41-0.01,44.82,0.01,67.23c0,1.24-0.17,2.46-0.2,3.7c-1.79,2.06-3.66,4.02-5.77,5.78
		C196.25,262.81,194.76,263.95,193.44,265.27z"/>
	<path class="st13" d="M203.45,255.84c-0.36-0.2-0.53-0.53-0.4-0.91c0.38-1.1,0.19-2.22,0.19-3.33c0.01-22.6,0-45.19,0.03-67.79
		c0-1.02-0.68-2.12,0.21-3.09c3.73,4.23,6.94,8.81,9.39,13.91c0.16,1.15,0.13,2.31,0.13,3.46c0,13.9-0.01,27.8,0.01,41.7
		c0,0.63-0.25,1.26,0.04,1.88c-0.73,1.99-1.89,3.75-3.02,5.52C208.1,250.27,205.95,253.19,203.45,255.84z"/>
	<path class="st37" d="M213.06,241.68c-0.59-0.12-0.44-0.59-0.44-0.96c-0.01-15.03-0.01-30.07,0-45.1c0-0.35-0.09-0.73,0.26-0.99
		c2.61,4.75,4.29,9.82,5.23,15.14c1.87,10.62,0.3,20.78-4.27,30.51C213.61,240.77,213.32,241.22,213.06,241.68z"/>
</g>
</svg>
