<svg id="Layer_1" data-name="Layer 1" xmlns="http://www.w3.org/2000/svg" viewBox="0 0 50 50"><defs><style>.cls-1{fill:#fff;}.cls-2{fill:#0a222f;}</style></defs><path class="cls-1" d="M25,49.64a3,3,0,0,1-2.12-.88L1.24,27.12a3,3,0,0,1,0-4.24L22.88,1.24a3,3,0,0,1,4.24,0L48.76,22.88a3,3,0,0,1,0,4.24L27.12,48.76A3,3,0,0,1,25,49.64Z"/><path class="cls-2" d="M25,.77a2.57,2.57,0,0,1,1.83.76L48.47,23.17a2.59,2.59,0,0,1,0,3.66L26.83,48.47a2.58,2.58,0,0,1-3.66,0L1.53,26.83a2.59,2.59,0,0,1,0-3.66L23.17,1.53A2.57,2.57,0,0,1,25,.77M25,0a3.43,3.43,0,0,0-2.41,1L1,22.59a3.41,3.41,0,0,0,0,4.82L22.59,49.05a3.4,3.4,0,0,0,4.82,0L49.05,27.41a3.41,3.41,0,0,0,0-4.82L27.41,1A3.43,3.43,0,0,0,25,0Z"/><path d="M37.53,35.18a4.94,4.94,0,0,1-.47,1,1.9,1.9,0,0,1-2.68.28c-.11-.09-.21-.19-.31-.29l-4.29-4.28c-.11-.11-.19-.2-.37-.1a.44.44,0,0,1-.54-.14.51.51,0,0,1,0-.63l-1.21-1.21c-.52.26-1,.57-1.6.81a9.82,9.82,0,0,1-4.7.82,10,10,0,0,1-5.51-2.07,9.53,9.53,0,0,1-3.67-5.79,10.13,10.13,0,0,1,8.71-12.29l.44-.06h1.45c.42.07.84.13,1.25.21a10.15,10.15,0,0,1,3.31,1.29.52.52,0,0,1,.2.7.53.53,0,0,1-.7.18c-.64-.3-1.26-.65-1.92-.89a8.61,8.61,0,0,0-4.36-.37A9.12,9.12,0,0,0,13,20.1a9.11,9.11,0,0,0,9,10.31,9,9,0,0,0,5.3-1.68A9.13,9.13,0,0,0,29.91,16.8c-.08-.15-.17-.29-.24-.44a.49.49,0,0,1,.19-.69.49.49,0,0,1,.69.21,10.24,10.24,0,0,1,1.09,2.35,10.13,10.13,0,0,1,.42,4.2,10,10,0,0,1-1.51,4.27c0,.08-.09.16-.15.26l1.16,1.16s.14,0,.2,0a.52.52,0,0,1,.63.64.39.39,0,0,0,.1.28c1.36,1.37,2.72,2.74,4.09,4.09a2.87,2.87,0,0,1,1,1.49Zm-5.86-5.51L30.35,31l4.57,4.56a.75.75,0,0,0,.17.14.94.94,0,0,0,1.4-.55,1,1,0,0,0-.32-1l-4.41-4.41Zm-2.08.49,1.26-1.26L30,28.06l-1.25,1.26Z"/><path d="M22,13.59a7.72,7.72,0,1,1-7.72,7.7A7.72,7.72,0,0,1,22,13.59Zm.23,1a6.7,6.7,0,1,0,6.47,6.88A6.71,6.71,0,0,0,22.23,14.6Z"/><path d="M32.54,14.59h-.32a.53.53,0,0,1-.49-.51.52.52,0,0,1,.49-.49h.65a.51.51,0,0,1,.49.5.51.51,0,0,1-.49.5Z"/><path d="M34.55,15.58c0,.14,0,.27,0,.4a.47.47,0,0,1-.44.41.45.45,0,0,1-.5-.33,5.13,5.13,0,0,1,0-1,.44.44,0,0,1,.5-.32.45.45,0,0,1,.44.4C34.54,15.31,34.54,15.45,34.55,15.58Z"/><path d="M35.51,14.58h-.35a.49.49,0,0,1,0-1,4.33,4.33,0,0,1,.72,0,.47.47,0,0,1,.45.48.49.49,0,0,1-.46.5,2.28,2.28,0,0,1-.37,0Z"/><path d="M34.55,12.6c0,.13,0,.27,0,.4a.47.47,0,0,1-.44.4.44.44,0,0,1-.5-.33,4.41,4.41,0,0,1,0-1c0-.21.27-.34.5-.32a.47.47,0,0,1,.43.41C34.54,12.33,34.54,12.47,34.55,12.6Z"/><path d="M28.31,14.5a.5.5,0,0,1,.48-.5.53.53,0,0,1,.52.5.5.5,0,0,1-.5.51A.5.5,0,0,1,28.31,14.5Z"/><path d="M16.47,33.63h.33a.5.5,0,0,1,0,1h-.68a.5.5,0,0,1-.47-.49.51.51,0,0,1,.49-.51Z"/><path d="M13.49,33.63h.35a.47.47,0,0,1,.45.5.47.47,0,0,1-.44.48,4.33,4.33,0,0,1-.72,0,.47.47,0,0,1-.45-.48.49.49,0,0,1,.46-.5Z"/><path d="M14.49,32.61c0-.11,0-.22,0-.32a.49.49,0,0,1,.48-.46.48.48,0,0,1,.5.42,5.08,5.08,0,0,1,0,.78.48.48,0,0,1-.51.42.49.49,0,0,1-.47-.46C14.48,32.86,14.49,32.74,14.49,32.61Z"/><path d="M14.49,35.63c0-.12,0-.24,0-.35a.48.48,0,0,1,.47-.46.47.47,0,0,1,.51.44,5.77,5.77,0,0,1,0,.72.49.49,0,0,1-.51.45.48.48,0,0,1-.48-.48c0-.1,0-.21,0-.32Z"/><path d="M20.06,20.64a3.38,3.38,0,0,1-.31-2.91,2.39,2.39,0,0,1,3.71-1.1,2.45,2.45,0,0,1,.94,2,3.23,3.23,0,0,1-.24,1.59c-.07.13-.14.26-.23.41l.28.08a3.5,3.5,0,0,1,2.5,3.57.51.51,0,0,1-.47.5,1.22,1.22,0,0,1-.27,0H18c-.58,0-.74-.16-.74-.74a3.45,3.45,0,0,1,2.59-3.36Zm-1.73,3.13h7.34a1.78,1.78,0,0,0,0-.26,2.41,2.41,0,0,0-2.35-1.91c-.82,0-1.64,0-2.46,0a2.46,2.46,0,0,0-1.66.58A2.29,2.29,0,0,0,18.33,23.77Zm2.27-4.93c0,.12,0,.23,0,.35A1.39,1.39,0,0,0,22,20.58a1.37,1.37,0,0,0,1.42-1.26,3.86,3.86,0,0,0,0-1,1.28,1.28,0,0,0-1-1.12,1.34,1.34,0,0,0-1.39.46A1.63,1.63,0,0,0,20.6,18.84Z"/></svg>