<svg id="Layer_1" data-name="Layer 1" xmlns="http://www.w3.org/2000/svg" viewBox="0 0 50 50"><defs><style>.cls-1{fill:#fff;}</style></defs><rect x="6.33" y="6.33" width="37.34" height="37.34" rx="3.39" transform="translate(-10.36 25) rotate(-45)"/><path class="cls-1" d="M12.47,20.29a2,2,0,0,1,1.09-1c3.61-1.71,7.2-3.44,10.8-5.15a4.33,4.33,0,0,1,3.92,0l10.53,5.15a2.92,2.92,0,0,1,.71.47,1.09,1.09,0,0,1-.09,1.71,3.38,3.38,0,0,1-.64.38c-1.09.55-2.18,1.09-3.28,1.62a.35.35,0,0,0-.24.38q0,3,0,6a1,1,0,0,1-.24.68,11.13,11.13,0,0,1-6.34,3.73,12.15,12.15,0,0,1-7.15-.63,10.85,10.85,0,0,1-4.32-3.16.93.93,0,0,1-.2-.55q0-3.08,0-6.13a.34.34,0,0,0-.23-.37c-.47-.21-.93-.45-1.44-.7V27c0,.12,0,.22.14.3a1.53,1.53,0,0,1,0,2.72l-.08.07,1.4,4.45h-4l1.4-4.46L14,29.91a1.51,1.51,0,0,1,.06-2.6.37.37,0,0,0,.21-.37q0-2.25,0-4.5a.33.33,0,0,0-.25-.37l-.41-.2a2,2,0,0,1-1.17-1.1Zm26.42.32V20.5c-.17-.1-.33-.22-.51-.31L27.79,15a3.28,3.28,0,0,0-3,0c-1.51.71-3,1.44-4.53,2.17l-6.35,3c-.17.08-.32.2-.55.33a4.78,4.78,0,0,0,.47.3,8.76,8.76,0,0,0,.82.39,1.29,1.29,0,0,0,.51.1c.52-.05,1-.12,1.57-.19l3.84-.45,3.88-.46c.55-.06,1.1-.13,1.65-.18a.47.47,0,0,1,.52.42.48.48,0,0,1-.41.54l-.29.05-3.87.45-4,.46-1.51.19.31.15,7.85,3.76a3.34,3.34,0,0,0,3,0L35,22.6l3.43-1.68C38.58,20.83,38.73,20.71,38.89,20.61ZM18.07,24v.34c0,1.69,0,3.38,0,5.06a1.18,1.18,0,0,0,.4,1A10.68,10.68,0,0,0,29,33.18a9.75,9.75,0,0,0,5.16-3.11.72.72,0,0,0,.15-.43c0-1.77,0-3.55,0-5.32V24l-.32.14L28.2,27a4.22,4.22,0,0,1-3.82,0c-2-.94-4-1.9-6-2.86Z"/></svg>