<svg id="Layer_1" data-name="Layer 1" xmlns="http://www.w3.org/2000/svg" viewBox="0 0 50 50"><defs><style>.cls-1{fill:#fff;}</style></defs><rect x="6.33" y="6.33" width="37.34" height="37.34" rx="3.39" transform="translate(-10.36 25) rotate(-45)"/><path class="cls-1" d="M32.83,13a4.41,4.41,0,0,1,.7.23A2.42,2.42,0,0,1,35,15.4a2.35,2.35,0,0,1,0,.26Q35,25,35,34.34a2.53,2.53,0,0,1-1.28,2.34,2.46,2.46,0,0,1-1.3.32H17.56A2.48,2.48,0,0,1,15,34.92a3.28,3.28,0,0,1,0-.63V15.73A2.51,2.51,0,0,1,17.13,13l0,0ZM16,25v9.35a2.68,2.68,0,0,0,0,.4A1.52,1.52,0,0,0,17.64,36h14.7A1.53,1.53,0,0,0,34,34.33V15.67A1.53,1.53,0,0,0,32.33,14H17.66A1.52,1.52,0,0,0,16,15.67Z"/><path class="cls-1" d="M23,21A5,5,0,1,1,18,26,5,5,0,0,1,23,21Zm-2.43,8.16a4,4,0,0,0,4.58.23,4,4,0,0,0,1.69-4.54,4,4,0,0,0-3.33-2.78v.25c0,1.15,0,2.3,0,3.45a1,1,0,0,1-.33.78C22.3,27.4,21.44,28.27,20.56,29.15Zm1.94-7.09a3.95,3.95,0,0,0-2.65,6.36l.07-.05c.83-.83,1.66-1.65,2.48-2.49a.41.41,0,0,0,.1-.29V22.06Z"/><path class="cls-1" d="M25,33H31.4c.37,0,.57.16.59.45a.49.49,0,0,1-.44.54H18.63c-.4,0-.62-.17-.63-.49a.49.49,0,0,1,.44-.5H25Z"/><path class="cls-1" d="M30.5,22h-1a.51.51,0,0,1-.54-.5.51.51,0,0,1,.54-.5h1.92a.49.49,0,0,1,.53.5.5.5,0,0,1-.55.5Z"/><path class="cls-1" d="M30.5,25h-1a.51.51,0,0,1-.54-.5.5.5,0,0,1,.54-.49q1,0,1.92,0a.47.47,0,0,1,.53.49.5.5,0,0,1-.53.5h-1Z"/><path class="cls-1" d="M30.49,28h-.94a.5.5,0,0,1-.55-.51.49.49,0,0,1,.55-.48c.63,0,1.26,0,1.9,0a.47.47,0,0,1,.54.5.49.49,0,0,1-.56.49Z"/><path class="cls-1" d="M30.51,30c.32,0,.64,0,1,0a.47.47,0,0,1,.52.5.49.49,0,0,1-.54.49H29.53a.5.5,0,0,1-.53-.5.49.49,0,0,1,.52-.49C29.85,30,30.18,30,30.51,30Z"/></svg>