<svg id="Layer_1" data-name="Layer 1" xmlns="http://www.w3.org/2000/svg" viewBox="0 0 50 50"><defs><style>.cls-1{fill:#fff;}</style></defs><rect x="6.33" y="6.33" width="37.34" height="37.34" rx="3.39" transform="translate(-10.36 25) rotate(-45)"/><path class="cls-1" d="M13.49,17.07a3.45,3.45,0,0,1,.24-.47,1.24,1.24,0,0,1,1.08-.49h4.94c0-.45,0-.89,0-1.32a2.73,2.73,0,0,1,.07-.7,1.93,1.93,0,0,1,2-1.51c2.29,0,4.57,0,6.86,0a1.93,1.93,0,0,1,2,1.5,3.6,3.6,0,0,1,.07.66c0,.44,0,.88,0,1.36H31c1.56,0,3.12,0,4.68,0A1.18,1.18,0,0,1,37,17a2,2,0,0,1,0,.34v8.56a1.23,1.23,0,0,1-.66,1.15.3.3,0,0,0-.12.25v5.19a1.16,1.16,0,0,1-.87,1.18,2.07,2.07,0,0,1-.5,0H15.64a1.2,1.2,0,0,1-1.33-.94,1.58,1.58,0,0,1,0-.38c0-1.7,0-3.4,0-5.1a.28.28,0,0,0-.18-.3,1.25,1.25,0,0,1-.61-.79ZM26.81,27.64l.28,0L31.24,27l4.5-.61c.38-.06.48-.18.48-.57v-8.4c0-.41-.13-.54-.55-.54H14.83c-.42,0-.55.13-.55.54v8.4c0,.39.1.51.48.57l3.06.42,4.9.67,1,.13c0-.24,0-.43,0-.62a1.14,1.14,0,0,1,1-1.1,8.17,8.17,0,0,1,1,0,1.14,1.14,0,0,1,1.08,1.13Zm-11.75-.37v5.12c0,.45.12.57.57.57H34.86c.45,0,.57-.12.57-.57V27.27l-8.62,1.19c0,.36,0,.7,0,1a1.14,1.14,0,0,1-1.12,1.12h-.75a1.18,1.18,0,0,1-1.26-1.26v-.9ZM29.94,16.1c0-.54,0-1.05,0-1.56a1.14,1.14,0,0,0-1.15-1.15H21.71a1.1,1.1,0,0,0-1.12.93,17.55,17.55,0,0,0,0,1.78h.75c0-.49,0-1,0-1.44s.13-.49.48-.49h6.88c.34,0,.47.14.48.47v1.22c0,.08,0,.16,0,.24ZM28.37,15H22.14V16.1h6.23Zm-3.9,13.29c0,.37,0,.75,0,1.12a.4.4,0,0,0,.43.45c.24,0,.48,0,.71,0a.38.38,0,0,0,.41-.4c0-.77,0-1.55,0-2.32,0-.26-.16-.39-.43-.4s-.43,0-.64,0-.48.14-.48.49S24.46,27.91,24.47,28.26Z"/></svg>