<svg id="Layer_1" data-name="Layer 1" xmlns="http://www.w3.org/2000/svg" viewBox="0 0 50 50"><defs><style>.cls-1{fill:#fff;}.cls-2{fill:#0a222f;}</style></defs><path class="cls-1" d="M25,49.64a3,3,0,0,1-2.12-.88L1.24,27.12a3,3,0,0,1,0-4.24L22.88,1.24a3,3,0,0,1,4.24,0L48.76,22.88a3,3,0,0,1,0,4.24L27.12,48.76A3,3,0,0,1,25,49.64Z"/><path class="cls-2" d="M25,.77a2.57,2.57,0,0,1,1.83.76L48.47,23.17a2.59,2.59,0,0,1,0,3.66L26.83,48.47a2.58,2.58,0,0,1-3.66,0L1.53,26.83a2.59,2.59,0,0,1,0-3.66L23.17,1.53A2.57,2.57,0,0,1,25,.77M25,0a3.43,3.43,0,0,0-2.41,1L1,22.59a3.41,3.41,0,0,0,0,4.82L22.59,49.05a3.4,3.4,0,0,0,4.82,0L49.05,27.41a3.41,3.41,0,0,0,0-4.82L27.41,1A3.43,3.43,0,0,0,25,0Z"/><path d="M23.89,41a2.61,2.61,0,0,1-1.43-1.79.83.83,0,0,0-.4-.61,1,1,0,0,1-.46-.88v-.78c-.46-.11-.59-.23-.59-.5s.16-.39.57-.45V35c-.44-.11-.58-.24-.56-.51s.27-.41.55-.43a5.9,5.9,0,0,0-1.9-5.13,8.66,8.66,0,0,1-1.83-2.34A7.52,7.52,0,0,1,17,23.78c0-.35.11-.56.38-.59s.45.16.5.5a7.08,7.08,0,0,0,2.32,4.46,7.17,7.17,0,0,1,2.16,3.65c.05.2.12.26.33.26q2.32,0,4.65,0a.28.28,0,0,0,.33-.26c.11-.4.25-.8.4-1.19a.44.44,0,0,1,.59-.29.43.43,0,0,1,.22.63A5.84,5.84,0,0,0,28.41,34c.42.07.58.2.58.48s-.17.39-.58.44V36c.42.06.57.19.58.46s-.17.42-.6.46v.66a1.22,1.22,0,0,1-.65,1.16.36.36,0,0,0-.16.21,2.58,2.58,0,0,1-1.41,2l-.06.06h-.29a1.37,1.37,0,0,1-.28-.32c-.09-.26.07-.43.29-.56a1.69,1.69,0,0,0,.86-1.22H23.3a1.68,1.68,0,0,0,.82,1.2c.45.28.47.56.06.9Zm-1.4-5h5V34.94h-5Zm0,.92a.54.54,0,0,0,0,.1v.55c0,.32.11.42.42.43H27c.22,0,.44,0,.47-.28a5.33,5.33,0,0,0,0-.8Zm0-2.9h5V33h-5Z"/><path d="M25.18,11a.75.75,0,0,1,.27.66c0,.58,0,1.15,0,1.73a.65.65,0,0,1-.24.42.5.5,0,0,1-.43,0,.52.52,0,0,1-.19-.39c0-.64,0-1.27,0-1.9,0-.17.17-.33.25-.49Z"/><path d="M28.78,20.91l.22.51c.29,0,.57,0,.85,0a.71.71,0,0,1,.75.73c0,.42,0,.84,0,1.26a.76.76,0,0,1-.76.77c-.28,0-.57,0-.84,0-.23.44-.23.44.09.77l.27.26a.74.74,0,0,1,0,1.14c-.27.28-.54.56-.82.83a.74.74,0,0,1-1.12,0l-.35-.35c-.13-.13-.23-.25-.46-.15s-.25.23-.24.43a4.56,4.56,0,0,1,0,.64.69.69,0,0,1-.7.65q-.66,0-1.32,0a.69.69,0,0,1-.7-.64,5.25,5.25,0,0,1,0-.79c0-.19-.11-.23-.24-.28s-.23-.12-.36,0a5.78,5.78,0,0,1-.49.5.73.73,0,0,1-1,0q-.48-.45-.93-.93a.72.72,0,0,1,0-1l.31-.31c.34-.34.34-.34.11-.79h-.78a.76.76,0,0,1-.82-.82V22.21a.74.74,0,0,1,.81-.79,3.68,3.68,0,0,1,.47,0,.35.35,0,0,0,.46-.33.37.37,0,0,0-.05-.27c-.15-.18-.34-.33-.49-.5a.72.72,0,0,1,0-1c.29-.32.61-.63.93-.93a.7.7,0,0,1,1,0c.15.13.28.28.42.41s.21.25.44.15a.38.38,0,0,0,.25-.45,4.14,4.14,0,0,1,0-.61.67.67,0,0,1,.64-.65,14.2,14.2,0,0,1,1.46,0,.66.66,0,0,1,.63.65,4.86,4.86,0,0,1,0,.76c0,.21.12.24.25.3s.24.09.36,0a5.21,5.21,0,0,1,.47-.47.72.72,0,0,1,1.05,0c.31.29.6.59.89.89a.74.74,0,0,1,0,1.1C29.19,20.55,29,20.73,28.78,20.91Zm-.07,4.85L28,25.07a.47.47,0,0,1-.1-.61,5.37,5.37,0,0,0,.33-.78.49.49,0,0,1,.54-.39c.31,0,.63,0,1,0v-1h-.94a.5.5,0,0,1-.56-.4,4.66,4.66,0,0,0-.3-.73.5.5,0,0,1,.11-.7c.23-.21.45-.43.61-.59l-.69-.78-.31.36-.35.35a.49.49,0,0,1-.62.09,7.8,7.8,0,0,0-.72-.31c-.37-.13-.44-.22-.45-.61v-.89h-1V19c0,.38-.09.48-.44.6a6.35,6.35,0,0,0-.67.28c-.35.16-.47.15-.75-.13s-.41-.43-.6-.63l-.74.71.68.66a.5.5,0,0,1,.11.68,3.78,3.78,0,0,0-.3.72.52.52,0,0,1-.58.42h-.93v1c.34,0,.66,0,1,0a.5.5,0,0,1,.52.38,3.82,3.82,0,0,0,.31.75.51.51,0,0,1-.11.69l-.64.58.69.8.68-.71a.48.48,0,0,1,.61-.1,5,5,0,0,0,.75.32.52.52,0,0,1,.43.57c0,.31,0,.62,0,.94h1v-1a.5.5,0,0,1,.39-.52,5.39,5.39,0,0,0,.75-.31.5.5,0,0,1,.68.11l.65.68Z"/><path d="M33.09,22.61a8.2,8.2,0,0,1-2.47,6l-.72.73a.47.47,0,0,1-.67.08.46.46,0,0,1,0-.68c.23-.25.48-.48.72-.73a7,7,0,0,0,1.91-7.28,6.86,6.86,0,0,0-5.49-5,7.23,7.23,0,0,0-8.52,6c0,.25-.1.46-.39.51s-.55-.22-.48-.64A7.29,7.29,0,0,1,17.89,19,8.07,8.07,0,0,1,33,21.39C33,21.85,33.06,22.32,33.09,22.61Z"/><path d="M14.67,22.36h1a.44.44,0,0,1,.46.43.45.45,0,0,1-.45.44c-.66,0-1.33,0-2,0a.44.44,0,0,1,0-.87Z"/><path d="M35.35,23.24h-.94a.46.46,0,0,1-.51-.45c0-.26.2-.43.52-.43h1.84c.32,0,.5.16.5.44s-.19.43-.51.44Z"/><path d="M33,31.32a2.31,2.31,0,0,1-.38-.24l-1.3-1.3a.45.45,0,1,1,.62-.63c.44.44.9.87,1.31,1.33a.69.69,0,0,1,.11.53C33.36,31.13,33.16,31.21,33,31.32Z"/><path d="M31.56,16.65c-.11-.08-.28-.16-.32-.28a.47.47,0,0,1,0-.45c.47-.52,1-1,1.48-1.5a.44.44,0,0,1,.61.61l-1.49,1.49A.92.92,0,0,1,31.56,16.65Z"/><path d="M16.93,31.3c-.11-.09-.28-.17-.32-.29a.52.52,0,0,1,.05-.46c.47-.51,1-1,1.46-1.47a.39.39,0,0,1,.58,0,.4.4,0,0,1,0,.58c-.48.5-1,1-1.47,1.47A1.54,1.54,0,0,1,16.93,31.3Z"/><path d="M18.87,16.22c-.09.11-.16.28-.28.32a.47.47,0,0,1-.45,0c-.51-.47-1-1-1.49-1.48a.43.43,0,0,1,.6-.61c.5.48,1,1,1.48,1.48C18.8,16,18.81,16.08,18.87,16.22Z"/><path d="M25,20.53a2.27,2.27,0,1,1-2.28,2.26A2.27,2.27,0,0,1,25,20.53Zm0,.89a1.37,1.37,0,0,0-1.39,1.36,1.38,1.38,0,1,0,2.76,0A1.37,1.37,0,0,0,25,21.42Z"/></svg>