<svg id="Layer_1" data-name="Layer 1" xmlns="http://www.w3.org/2000/svg" viewBox="0 0 50 50"><defs><style>.cls-1{fill:#fff;}.cls-2{fill:#0a222f;}</style></defs><path class="cls-1" d="M25,49.64a3,3,0,0,1-2.12-.88L1.24,27.12a3,3,0,0,1,0-4.24L22.88,1.24a3,3,0,0,1,4.24,0L48.76,22.88a3,3,0,0,1,0,4.24L27.12,48.76A3,3,0,0,1,25,49.64Z"/><path class="cls-2" d="M25,.77a2.57,2.57,0,0,1,1.83.76L48.47,23.17a2.59,2.59,0,0,1,0,3.66L26.83,48.47a2.58,2.58,0,0,1-3.66,0L1.53,26.83a2.59,2.59,0,0,1,0-3.66L23.17,1.53A2.57,2.57,0,0,1,25,.77M25,0a3.43,3.43,0,0,0-2.41,1L1,22.59a3.41,3.41,0,0,0,0,4.82L22.59,49.05a3.4,3.4,0,0,0,4.82,0L49.05,27.41a3.41,3.41,0,0,0,0-4.82L27.41,1A3.43,3.43,0,0,0,25,0Z"/><path d="M36,33.61H14a.19.19,0,0,1,0-.07,8.07,8.07,0,0,1,1.71-5.17,8.72,8.72,0,0,1,3.94-2.68,15,15,0,0,1,5.15-.85,15.81,15.81,0,0,1,5.29.77A9.06,9.06,0,0,1,33.88,28a7.38,7.38,0,0,1,1.93,3.93C35.9,32.44,35.94,33,36,33.61ZM34.21,32c0-.06,0-.12,0-.17a5.51,5.51,0,0,0-2-3.25,9.52,9.52,0,0,0-4.77-1.88,16.8,16.8,0,0,0-4.31-.08,11.62,11.62,0,0,0-3.92,1,6.06,6.06,0,0,0-3.07,3,5.21,5.21,0,0,0-.4,1.36Z"/><path d="M31.57,16.05A6.59,6.59,0,1,1,25,9.46,6.58,6.58,0,0,1,31.57,16.05ZM25,21A4.94,4.94,0,1,0,20,16,5,5,0,0,0,25,21Z"/></svg>