<svg id="Layer_1" data-name="Layer 1" xmlns="http://www.w3.org/2000/svg" viewBox="0 0 50 50"><defs><style>.cls-1{fill:#fff;}</style></defs><rect x="6.33" y="6.33" width="37.34" height="37.34" rx="3.39" transform="translate(-10.36 25) rotate(-45)"/><path class="cls-1" d="M30.81,12h.38a.88.88,0,0,1,.56,1c0,.3,0,.6,0,.91.75,0,1.46,0,2.17,0A3.08,3.08,0,0,1,37,16.94v16A3.09,3.09,0,0,1,33.92,36H16.07a3.08,3.08,0,0,1-3-2.25c0-.15-.08-.31-.12-.47V16.59s0-.08,0-.13a3,3,0,0,1,2.61-2.54,17.83,17.83,0,0,1,1.79,0h.81c0-.32,0-.61,0-.91a.86.86,0,0,1,.56-1h.38a.88.88,0,0,1,.56,1c0,.3,0,.6,0,.89h10.5a8.77,8.77,0,0,0,0-.89A.88.88,0,0,1,30.81,12Zm4.69,8.27h-21V32.72a1.61,1.61,0,0,0,1.77,1.78H33.73a1.62,1.62,0,0,0,1.77-1.78V20.27Zm-3.75-4.89v.68a.75.75,0,1,1-1.5,0v-.66H19.75V16a.75.75,0,1,1-1.5,0v-.68H16.11a1.51,1.51,0,0,0-1.57,1.32,19.78,19.78,0,0,0,0,2h21a.45.45,0,0,0,0-.08V17a1.57,1.57,0,0,0-1.41-1.56C33.32,15.34,32.55,15.38,31.75,15.38Z"/></svg>