<svg id="Layer_1" data-name="Layer 1" xmlns="http://www.w3.org/2000/svg" viewBox="0 0 50 50"><defs><style>.cls-1{fill:#fff;}</style></defs><rect x="6.33" y="6.33" width="37.34" height="37.34" rx="3.39" transform="translate(-10.36 25) rotate(-45)"/><path class="cls-1" d="M25.62,11.12a2,2,0,0,1,1.17.77.63.63,0,0,1,.13.2c.07.42.38.49.73.55a12.73,12.73,0,0,1,2.83.82.41.41,0,0,0,.36,0,4.42,4.42,0,0,1,6.53,3.11A4.19,4.19,0,0,1,37,19.09a.47.47,0,0,0,0,.47,13.29,13.29,0,0,1,1.47,6.8,12.62,12.62,0,0,1-.88,4.06.37.37,0,0,0,.08.42,1.84,1.84,0,0,1-1.74,3,.35.35,0,0,0-.38.14,12.7,12.7,0,0,1-8.12,4.74A13,13,0,0,1,15,34a.36.36,0,0,0-.41-.14,1.84,1.84,0,0,1-1.89-.9,1.79,1.79,0,0,1,.15-2.05.48.48,0,0,0,.07-.53A13.09,13.09,0,0,1,14.4,18.13a.58.58,0,0,1,.62-.32.56.56,0,0,1,.31.9c-.34.57-.7,1.12-1,1.71a11.78,11.78,0,0,0-1.16,6.07A12.25,12.25,0,0,0,13.94,30c.05.13.1.2.26.19a1.76,1.76,0,0,1,1.72,1,1.79,1.79,0,0,1-.13,2s0,0,0,0a12.1,12.1,0,0,0,19.06,0,1.89,1.89,0,0,1-.31-1.69,1.79,1.79,0,0,1,1.76-1.3.35.35,0,0,0,.4-.28,12.14,12.14,0,0,0-.33-9.28c0-.09-.09-.17-.15-.28a4.53,4.53,0,0,1-1.93,1.17,9.82,9.82,0,0,1,0,8.23,9.68,9.68,0,0,1-4.44,4.69,9.88,9.88,0,1,1-1.13-18,4.56,4.56,0,0,1,1-2,10.32,10.32,0,0,0-2.56-.68.26.26,0,0,0-.22.12,1.8,1.8,0,0,1-1.67,1,1.73,1.73,0,0,1-1.63-1c-.11-.21-.26-.13-.39-.11a11.79,11.79,0,0,0-3.52,1.18c-.48.26-.93.55-1.4.84a.56.56,0,0,1-.74,0,.54.54,0,0,1,.13-.88,12.63,12.63,0,0,1,4-1.87c.52-.15,1.06-.23,1.59-.35.08,0,.21-.07.23-.13A2,2,0,0,1,25,11.12ZM32,31.27a2.79,2.79,0,0,0,.2-.24,8.66,8.66,0,0,0,1.19-8.7c-.24-.63-.25-.62-.9-.69a4.38,4.38,0,0,1-3.86-3.86.36.36,0,0,0-.27-.35A8.78,8.78,0,0,0,17.55,29.78c.28.51.63,1,1,1.55a5.32,5.32,0,0,1,4.29-3.61l-.1-.14a3.17,3.17,0,0,1-.8-2c0-1-.05-2,0-3a3.31,3.31,0,0,1,3-3.17,3.35,3.35,0,0,1,3.68,3c.05.92,0,1.85,0,2.77a3.52,3.52,0,0,1-.85,2.42.46.46,0,0,0-.05.1A5.32,5.32,0,0,1,32,31.27Zm-7.28-2.48c-.48,0-.94,0-1.39,0A4.11,4.11,0,0,0,19.51,32a.35.35,0,0,0,.13.42,8.76,8.76,0,0,0,11.31,0,.35.35,0,0,0,.13-.42c-.71-2.55-2.86-3.45-5.25-3.13v.3c0,.83,0,1.66,0,2.49a.54.54,0,0,1-.47.54.53.53,0,0,1-.57-.36.85.85,0,0,1,0-.32ZM36.33,17.27A3.31,3.31,0,1,0,33,20.58,3.31,3.31,0,0,0,36.33,17.27ZM23,24.69c0,.28,0,.51,0,.75a2.28,2.28,0,0,0,4.51.44,9.39,9.39,0,0,0,.06-1.19.32.32,0,0,0-.19-.34c-.29-.16-.58-.32-.86-.51a.27.27,0,0,0-.37,0,3.49,3.49,0,0,1-2.08.82Zm4.57-1.5v-.48a2.27,2.27,0,0,0-2.8-2.16,2.43,2.43,0,0,0-1.73,3.05h.32a2.79,2.79,0,0,0,2.48-.94.52.52,0,0,1,.69-.07Zm-2.3-9.47a.76.76,0,1,0-.74-.77A.76.76,0,0,0,25.28,13.72ZM15.05,32a.75.75,0,1,0-1.5,0,.75.75,0,0,0,.73.76A.76.76,0,0,0,15.05,32Zm20.49,0a.75.75,0,1,0,.76-.75A.76.76,0,0,0,35.54,32Z"/><path class="cls-1" d="M32.73,17.38,34,16.07a.48.48,0,0,1,.56-.15.86.86,0,0,1,.36.42.58.58,0,0,1-.15.48c-.54.57-1.1,1.12-1.66,1.67a.5.5,0,0,1-.77,0c-.33-.31-.65-.63-1-.95a.55.55,0,0,1,0-.76.53.53,0,0,1,.78,0C32.37,17,32.53,17.16,32.73,17.38Z"/></svg>