<svg id="Layer_1" data-name="Layer 1" xmlns="http://www.w3.org/2000/svg" viewBox="0 0 50 50"><defs><style>.cls-1{fill:#fff;}.cls-2{fill:#0a222f;}</style></defs><path class="cls-1" d="M25,49.64a3,3,0,0,1-2.12-.88L1.24,27.12a3,3,0,0,1,0-4.24L22.88,1.24a3,3,0,0,1,4.24,0L48.76,22.88a3,3,0,0,1,0,4.24L27.12,48.76A3,3,0,0,1,25,49.64Z"/><path class="cls-2" d="M25,.77a2.57,2.57,0,0,1,1.83.76L48.47,23.17a2.58,2.58,0,0,1,0,3.66L26.83,48.47a2.58,2.58,0,0,1-3.66,0L1.53,26.83a2.58,2.58,0,0,1,0-3.66L23.17,1.53A2.57,2.57,0,0,1,25,.77M25,0a3.43,3.43,0,0,0-2.41,1L1,22.59a3.41,3.41,0,0,0,0,4.82L22.59,49.05a3.4,3.4,0,0,0,4.82,0L49.05,27.41a3.41,3.41,0,0,0,0-4.82L27.41,1A3.43,3.43,0,0,0,25,0Z"/><path d="M33.2,13l.41.12a2.58,2.58,0,0,1,1.77,2.58v16c0,.53-.18.7-.71.7H31.3v3.36c0,.55-.16.72-.72.72H16.71c-.54,0-.71-.17-.71-.71v-20a2.55,2.55,0,0,1,2.13-2.66l.05,0Zm-2.44,1h-12a2.42,2.42,0,0,0-.54.06A1.51,1.51,0,0,0,17,15.66V35.42H30.27V15.72a2.8,2.8,0,0,1,.28-1.3C30.61,14.3,30.68,14.18,30.76,14Zm3.59,17.3V15.74a2.18,2.18,0,0,0,0-.25,1.52,1.52,0,0,0-2-1.38,1.54,1.54,0,0,0-1.07,1.61V31.09a2.29,2.29,0,0,0,0,.25Z"/><path d="M23.67,17.09h3.91c.47,0,.67.19.67.66v5.81c0,.47-.2.66-.67.66-2.62,0-5.23,0-7.85,0-.48,0-.67-.19-.67-.67V17.76c0-.49.19-.67.68-.67Zm-3.56,6.09H27.2V18.12H20.11Z"/><path d="M23.68,29.31h3.93c.35,0,.54.13.61.41a.49.49,0,0,1-.36.59,1.31,1.31,0,0,1-.34,0H19.78a1.33,1.33,0,0,1-.2,0,.54.54,0,0,1-.52-.54.54.54,0,0,1,.57-.49h4.05Z"/><path d="M23.64,27.29H19.77a1.08,1.08,0,0,1-.36-.05.47.47,0,0,1-.34-.46.49.49,0,0,1,.35-.49,1.24,1.24,0,0,1,.33,0h7.81c.39,0,.58.12.65.4a.47.47,0,0,1-.32.59,1,1,0,0,1-.34.05Z"/><path d="M23.68,32.38c1.32,0,2.65,0,4,0a.5.5,0,0,1,.55.66.48.48,0,0,1-.4.34H19.74c-.37,0-.56-.1-.64-.33a.5.5,0,0,1,.48-.68c.35,0,.7,0,1.05,0Z"/></svg>