<svg id="Layer_1" data-name="Layer 1" xmlns="http://www.w3.org/2000/svg" viewBox="0 0 50 50"><defs><style>.cls-1{fill:#fff;}</style></defs><rect x="6.33" y="6.33" width="37.34" height="37.34" rx="3.39" transform="translate(-10.36 25) rotate(-45)"/><path class="cls-1" d="M33.36,36.28c-.2-.18-.39-.35-.58-.54l-8-8c-.4-.4-.4-.59,0-1l.55-.52-.85-.85a12.87,12.87,0,0,1-1.41.89,6.86,6.86,0,0,1-7.39-.56,6.8,6.8,0,0,1-2.78-4.4l-.12-.69V19.46c.06-.32.11-.64.18-1a7,7,0,0,1,7.88-5.42,6.93,6.93,0,0,1,4.4,2.45,6.7,6.7,0,0,1,1.54,3.4,6.91,6.91,0,0,1-1.48,5.55l-.14.19.88.86.58-.59c.31-.32.54-.32.85,0l8.37,8.37c.31.3.3.53,0,.84-.64.64-1.28,1.27-1.91,1.91l-.28.23ZM13.74,20.05a6.11,6.11,0,1,0,6.1-6.11A6.09,6.09,0,0,0,13.74,20.05Zm21.15,13.7-6.36-6.36-1.37,1.37,6.36,6.36Zm-9.23-6.48.76.76,1.37-1.39L27,25.89Z"/><path class="cls-1" d="M24.83,20.05a5,5,0,1,1-5-5A5,5,0,0,1,24.83,20.05Zm-9,0A4.05,4.05,0,1,0,19.85,16,4.08,4.08,0,0,0,15.8,20.05Z"/></svg>