<svg id="Layer_1" data-name="Layer 1" xmlns="http://www.w3.org/2000/svg" viewBox="0 0 50 50"><defs><style>.cls-1{fill:#fff;}</style></defs><rect x="6.33" y="6.33" width="37.34" height="37.34" rx="3.39" transform="translate(-10.36 25) rotate(-45)"/><path class="cls-1" d="M25,34.59H14.88A2.73,2.73,0,0,1,12,31.7V18.29a2.73,2.73,0,0,1,2.89-2.88H35.12A2.73,2.73,0,0,1,38,18.3V31.71a2.73,2.73,0,0,1-2.89,2.88Zm0-1.08H35.06a1.67,1.67,0,0,0,1.86-1.86V18.35a1.67,1.67,0,0,0-1.86-1.86H14.94a1.67,1.67,0,0,0-1.86,1.86v13.3a1.67,1.67,0,0,0,1.86,1.86Z"/><path class="cls-1" d="M19.75,30.81H16.26c-.65,0-.82-.18-.78-.83a4.3,4.3,0,0,1,8.59.23c0,.39-.23.6-.65.6Zm3.17-1.1a3.19,3.19,0,0,0-3.28-2.81,3.16,3.16,0,0,0-3,2.81Z"/><path class="cls-1" d="M17,22a2.8,2.8,0,1,1,2.79,2.8A2.8,2.8,0,0,1,17,22Zm1.09,0a1.71,1.71,0,1,0,1.72-1.71A1.71,1.71,0,0,0,18.06,22Z"/><path class="cls-1" d="M30.8,22.07h-3a1,1,0,0,1-.35,0,.53.53,0,0,1,0-1,.81.81,0,0,1,.27-.05h6.14c.4,0,.63.23.62.56s-.25.52-.64.52Z"/><path class="cls-1" d="M30.82,24.46H34a.53.53,0,0,1,0,1.06H27.75c-.39,0-.64-.22-.64-.55s.26-.53.65-.53Z"/><path class="cls-1" d="M30.8,27.93h2.95a1.22,1.22,0,0,1,.27,0,.52.52,0,0,1,.47.53A.52.52,0,0,1,34,29H27.75c-.39,0-.64-.22-.64-.55s.26-.53.65-.53Z"/></svg>