<svg id="Layer_1" data-name="Layer 1" xmlns="http://www.w3.org/2000/svg" viewBox="0 0 50 50"><defs><style>.cls-1{fill:#fff;}.cls-2{fill:#0a222f;}.cls-3{fill:none;stroke:#000;stroke-miterlimit:10;stroke-width:1.5px;}</style></defs><path class="cls-1" d="M25,49.64a3,3,0,0,1-2.12-.88L1.24,27.12a3,3,0,0,1,0-4.24L22.88,1.24a3,3,0,0,1,4.24,0L48.76,22.88a3,3,0,0,1,0,4.24L27.12,48.76A3,3,0,0,1,25,49.64Z"/><path class="cls-2" d="M25,.77a2.57,2.57,0,0,1,1.83.76L48.47,23.17a2.58,2.58,0,0,1,0,3.66L26.83,48.47a2.58,2.58,0,0,1-3.66,0L1.53,26.83a2.58,2.58,0,0,1,0-3.66L23.17,1.53A2.57,2.57,0,0,1,25,.77M25,0a3.43,3.43,0,0,0-2.41,1L1,22.59a3.41,3.41,0,0,0,0,4.82L22.59,49.05a3.4,3.4,0,0,0,4.82,0L49.05,27.41a3.41,3.41,0,0,0,0-4.82L27.41,1A3.43,3.43,0,0,0,25,0Z"/><rect x="23.44" y="16.81" width="2.55" height="11.95" rx="1.28"/><rect x="23.45" y="30.6" width="2.55" height="2.59" rx="1.28"/><circle class="cls-3" cx="25" cy="25" r="13"/></svg>